<?xml version="1.0" standalone="no"?>
<!DOCTYPE svg PUBLIC "-//W3C//DTD SVG 20010904//EN"
 "http://www.w3.org/TR/2001/REC-SVG-20010904/DTD/svg10.dtd">
<svg version="1.0" xmlns="http://www.w3.org/2000/svg"
 width="858.000000pt" height="225.000000pt" viewBox="0 0 858.000000 225.000000"
 preserveAspectRatio="xMidYMid meet">
<metadata>
Created by potrace 1.16, written by Peter Selinger 2001-2019
</metadata>
<g transform="translate(0.000000,225.000000) scale(0.100000,-0.100000)"
fill="#000000" stroke="none">
<path d="M4889 2236 c-39 -10 -75 -39 -223 -175 -149 -139 -176 -168 -176
-192 0 -16 3 -29 6 -29 3 0 96 84 207 186 247 228 243 224 237 223 -3 0 -26
-6 -51 -13z"/>
<path d="M4790 2024 c-326 -300 -304 -277 -294 -306 9 -24 22 -13 289 234 361
334 327 298 285 298 -32 0 -60 -23 -280 -226z"/>
<path d="M4865 1942 c-182 -167 -331 -307 -333 -311 -1 -4 3 -15 10 -24 12
-16 50 17 365 307 338 312 350 324 319 328 -30 3 -55 -18 -361 -300z"/>
<path d="M7313 1938 c-248 -228 -340 -319 -344 -340 -4 -18 -2 -28 5 -28 8 0
563 503 741 671 5 5 -6 9 -28 9 -34 0 -59 -21 -374 -312z"/>
<path d="M7485 2233 c-11 -3 -57 -40 -103 -82 -46 -42 -104 -94 -128 -116 -32
-28 -49 -54 -59 -88 l-14 -47 179 166 c99 91 180 168 180 170 0 5 -29 3 -55
-3z"/>
<path d="M7443 1908 c-240 -222 -355 -334 -344 -337 9 -2 19 -7 22 -12 4 -7
577 509 729 657 l25 24 -36 0 c-32 0 -64 -27 -396 -332z"/>
<path d="M5259 2156 c-35 -34 -102 -96 -148 -139 l-84 -77 36 0 c32 0 50 13
175 129 139 128 140 130 113 139 -25 9 -33 5 -92 -52z"/>
<path d="M7830 2114 c-169 -155 -158 -142 -109 -135 34 5 57 21 135 91 81 74
93 89 94 118 0 17 -1 32 -2 32 -2 -1 -55 -48 -118 -106z"/>
<path d="M8380 2163 c-45 -31 -555 -506 -558 -520 -2 -7 -7 -11 -11 -9 -4 3
-23 -10 -41 -29 l-34 -35 35 0 c31 1 65 29 354 296 176 162 322 300 323 305 6
15 -42 10 -68 -8z"/>
<path d="M5374 2112 c-32 -31 -90 -86 -127 -121 -50 -47 -65 -66 -55 -72 7 -5
19 -9 26 -9 14 0 252 217 252 231 0 4 -8 13 -18 18 -14 7 -29 -2 -78 -47z"/>
<path d="M750 2146 c0 -2 74 -72 165 -155 161 -149 165 -151 171 -124 6 24 1
33 -48 78 -31 27 -94 85 -141 128 -68 62 -90 77 -116 77 -17 0 -31 -2 -31 -4z"/>
<path d="M676 2094 c-5 -17 -2 -32 6 -40 7 -7 94 -87 193 -178 175 -160 180
-164 187 -138 5 17 3 31 -5 38 -46 41 -300 275 -333 307 l-41 39 -7 -28z"/>
<path d="M5480 2057 c-25 -23 -82 -76 -128 -119 -76 -69 -82 -78 -71 -96 12
-20 16 -18 78 38 200 180 207 186 192 204 -18 22 -20 21 -71 -27z"/>
<path d="M8175 1829 c-137 -127 -256 -236 -263 -243 -12 -11 -9 -14 17 -18 28
-4 49 13 258 205 125 116 232 219 236 231 28 71 -5 48 -248 -175z"/>
<path d="M656 1983 c-25 -25 2 -58 187 -227 177 -163 192 -175 195 -151 2 14
-2 33 -9 41 -34 41 -367 342 -373 337z"/>
<path d="M6005 1638 c-148 -138 -274 -260 -278 -271 -4 -12 -7 -29 -5 -38 3
-16 90 61 567 504 l62 57 -38 -1 c-35 0 -56 -17 -308 -251z"/>
<path d="M7343 1665 c-186 -173 -243 -231 -248 -255 -4 -17 -5 -33 -3 -35 2
-2 113 96 247 220 222 204 244 226 247 259 2 20 2 36 1 36 -1 -1 -111 -102
-244 -225z"/>
<path d="M6079 1554 c-195 -179 -355 -332 -357 -340 -2 -7 0 -20 5 -28 7 -12
94 63 385 332 236 218 372 350 365 354 -7 4 -19 8 -28 8 -9 0 -175 -147 -370
-326z"/>
<path d="M8165 1669 c-127 -117 -233 -217 -236 -223 -3 -6 -9 -26 -13 -44 l-6
-33 64 58 c239 216 432 398 426 401 -4 1 -5 14 -2 27 2 14 3 25 1 25 -3 0
-108 -95 -234 -211z"/>
<path d="M6101 1852 c-27 -11 -86 -56 -161 -124 -90 -82 -124 -122 -150 -170
l-34 -63 40 34 c64 57 364 334 364 338 0 5 -14 2 -59 -15z"/>
<path d="M630 1832 c0 -26 23 -52 185 -202 102 -94 189 -168 195 -165 28 17
-1 53 -168 206 -227 210 -212 199 -212 161z"/>
<path d="M6441 1737 c-119 -108 -122 -112 -96 -120 23 -8 34 -1 101 60 42 37
96 86 121 108 l45 41 -24 11 c-24 11 -33 4 -147 -100z"/>
<path d="M4757 1692 c-149 -138 -157 -146 -141 -163 16 -18 21 -15 117 74 222
205 208 190 194 213 -11 21 -19 15 -170 -124z"/>
<path d="M7380 1548 c-168 -154 -309 -290 -313 -302 -28 -73 7 -47 313 235
173 159 328 303 345 320 l30 29 -35 0 c-32 0 -63 -26 -340 -282z"/>
<path d="M7850 1813 c0 -12 -3 -14 -8 -7 -4 7 -55 -33 -138 -110 l-131 -121
33 -3 c31 -3 44 6 129 85 69 64 95 95 96 113 0 19 2 21 7 9 6 -14 13 -12 46
17 l39 34 -36 0 c-29 0 -37 -4 -37 -17z"/>
<path d="M8199 1550 c-263 -242 -305 -285 -312 -317 -4 -20 -6 -37 -5 -38 2
-2 638 581 682 625 7 7 -2 10 -25 10 -32 0 -62 -25 -340 -280z"/>
<path d="M1785 1791 c11 -11 126 -116 255 -235 227 -209 235 -215 242 -190 6
24 0 34 -60 89 -37 34 -139 128 -226 208 -143 132 -163 147 -195 147 -35 0
-35 0 -16 -19z"/>
<path d="M1647 1792 c-15 -6 39 -60 279 -282 164 -151 306 -281 316 -288 16
-12 18 -10 18 17 0 27 -33 61 -285 293 -157 145 -291 264 -298 265 -7 1 -20
-1 -30 -5z"/>
<path d="M2078 1673 c75 -70 154 -143 175 -162 l37 -35 0 34 c0 32 -12 46
-130 153 -118 107 -163 137 -207 137 -7 0 49 -57 125 -127z"/>
<path d="M6541 1679 c-98 -91 -121 -117 -117 -133 3 -12 6 -25 6 -30 0 -5 57
45 128 110 70 65 130 121 135 124 4 4 -1 14 -12 24 -18 16 -23 12 -140 -95z"/>
<path d="M2620 1777 c0 -2 88 -84 196 -183 148 -135 201 -178 217 -176 12 2
24 6 27 9 3 2 -31 38 -75 78 -78 71 -80 72 -93 52 -12 -21 -12 -20 -10 9 3 27
-8 41 -96 122 -84 77 -105 92 -133 92 -18 0 -33 -1 -33 -3z"/>
<path d="M3440 1777 c0 -3 55 -55 123 -117 67 -62 172 -159 232 -215 171 -159
169 -158 188 -137 14 16 -3 34 -229 242 -209 192 -250 225 -279 228 -19 2 -35
1 -35 -1z"/>
<path d="M3620 1756 c14 -12 114 -105 223 -205 164 -152 200 -181 212 -171 8
7 15 16 15 20 0 5 -91 92 -201 194 -184 170 -205 186 -238 186 l-36 0 25 -24z"/>
<path d="M3898 1653 c75 -70 156 -145 179 -166 36 -34 44 -38 58 -27 8 7 15
15 15 19 0 4 -72 73 -159 154 -143 131 -164 147 -195 147 -35 0 -34 -1 102
-127z"/>
<path d="M4015 1695 c50 -47 111 -103 136 -125 43 -37 47 -38 62 -22 14 16 7
25 -100 122 -97 89 -120 105 -151 108 l-37 2 90 -85z"/>
<path d="M2535 1733 c-5 -23 -1 -32 22 -52 15 -13 102 -92 191 -175 90 -83
167 -152 171 -154 3 -1 11 6 18 17 10 17 -6 35 -150 168 -89 82 -181 166 -203
186 l-42 37 -7 -27z"/>
<path d="M4842 1619 c-84 -77 -152 -142 -152 -144 0 -2 9 -9 20 -15 18 -10 38
6 175 132 137 127 153 144 138 156 -9 6 -19 12 -23 12 -3 0 -74 -63 -158 -141z"/>
<path d="M3367 1743 c-22 -21 -1 -54 87 -135 83 -78 99 -88 131 -88 l37 0 -78
73 c-43 39 -99 91 -125 114 -25 24 -49 40 -52 36z"/>
<path d="M607 1704 c-4 -25 4 -36 66 -94 39 -36 126 -115 192 -176 117 -110
120 -111 127 -85 6 21 2 31 -20 52 -25 24 -271 250 -333 307 l-26 23 -6 -27z"/>
<path d="M4948 1566 c-152 -139 -155 -144 -132 -155 23 -10 35 -2 184 136 158
146 167 159 115 162 -6 1 -81 -64 -167 -143z"/>
<path d="M6590 1574 c-146 -135 -158 -150 -159 -192 -1 -19 32 8 169 134 94
86 170 159 170 163 0 9 -22 31 -29 30 -4 0 -71 -61 -151 -135z"/>
<path d="M2946 1654 c-8 -21 -4 -25 113 -133 102 -94 141 -117 141 -83 0 18
-220 232 -239 232 -5 0 -12 -7 -15 -16z"/>
<path d="M5068 1528 c-86 -79 -157 -146 -157 -149 -1 -4 10 -10 24 -13 22 -6
45 12 180 136 136 126 153 144 138 156 -9 6 -19 12 -23 12 -3 0 -76 -64 -162
-142z"/>
<path d="M2515 1617 c-4 -9 -5 -23 -3 -32 1 -9 84 -90 183 -181 170 -155 180
-163 188 -141 8 26 4 31 -198 217 -38 35 -91 84 -117 109 -38 36 -48 41 -53
28z"/>
<path d="M5182 1480 c-148 -136 -152 -141 -128 -151 23 -11 34 -2 175 127 131
122 148 141 134 152 -9 6 -20 12 -23 12 -4 0 -75 -63 -158 -140z"/>
<path d="M6610 1441 c-149 -137 -197 -187 -207 -216 -7 -21 -11 -40 -9 -42 6
-6 421 378 424 393 2 7 0 20 -5 29 -7 11 -50 -24 -203 -164z"/>
<path d="M586 1585 c-3 -9 -6 -22 -6 -29 0 -11 361 -348 381 -355 6 -2 9 9 7
26 -2 23 -34 58 -148 163 -80 73 -164 151 -186 173 -34 32 -42 36 -48 22z"/>
<path d="M5288 1428 c-79 -73 -144 -135 -146 -139 -1 -3 4 -12 12 -19 20 -15
26 -11 193 145 111 103 127 122 114 132 -9 7 -19 13 -23 13 -4 0 -71 -59 -150
-132z"/>
<path d="M7285 1309 c-132 -121 -243 -226 -246 -232 -3 -7 -9 -28 -13 -47 l-6
-35 52 51 c29 28 141 132 249 232 164 151 197 187 202 214 2 18 4 34 3 35 -1
1 -110 -97 -241 -218z"/>
<path d="M8128 1334 c-254 -232 -268 -247 -268 -280 0 -14 4 -24 9 -22 4 2
110 97 234 211 198 183 225 212 229 242 2 19 3 35 1 35 -2 0 -94 -84 -205
-186z"/>
<path d="M2490 1472 c0 -24 27 -54 174 -190 96 -89 177 -162 179 -162 3 0 7
11 9 25 5 22 -18 46 -173 190 -98 91 -180 165 -183 165 -3 0 -6 -13 -6 -28z"/>
<path d="M5967 1300 c-120 -111 -217 -204 -216 -208 0 -4 4 -15 8 -26 6 -15
37 10 203 163 167 154 198 188 211 226 9 25 15 45 13 45 -2 0 -100 -90 -219
-200z"/>
<path d="M6460 1152 c-206 -191 -374 -349 -373 -352 1 -3 14 -6 27 -8 21 -3
88 55 380 325 344 317 381 357 349 376 -5 3 -177 -151 -383 -341z"/>
<path d="M5151 1152 c-200 -185 -363 -341 -362 -347 0 -5 12 -10 25 -10 17 0
120 89 380 328 312 289 354 331 346 348 -6 10 -14 19 -18 18 -4 0 -171 -152
-371 -337z"/>
<path d="M567 1464 c-25 -26 0 -57 174 -217 99 -92 184 -167 189 -167 4 0 10
9 13 20 4 15 -24 46 -126 142 -73 67 -157 146 -188 175 -30 30 -58 50 -62 47z"/>
<path d="M3660 1446 c-12 -15 -6 -22 176 -189 49 -45 52 -46 68 -29 15 18 10
24 -101 125 -64 59 -120 107 -123 107 -4 0 -13 -7 -20 -14z"/>
<path d="M1883 1431 c-11 -18 5 -36 166 -185 176 -163 191 -172 191 -122 0 10
-332 326 -342 326 -2 0 -9 -9 -15 -19z"/>
<path d="M1772 1351 c35 -32 146 -135 248 -229 180 -165 185 -170 192 -144 6
21 3 32 -15 48 -12 12 -111 103 -219 203 -179 165 -200 181 -233 181 l-36 0
63 -59z"/>
<path d="M5280 1119 c-168 -154 -318 -293 -335 -310 l-30 -29 35 0 c36 0 33
-3 583 506 62 57 68 66 60 88 -8 24 -22 13 -313 -255z"/>
<path d="M3586 1371 c-15 -17 -10 -24 104 -131 101 -94 123 -110 135 -100 8 7
15 16 15 20 0 4 -53 57 -119 118 -113 106 -119 111 -135 93z"/>
<path d="M2465 1343 c-3 -14 -2 -29 3 -32 5 -3 84 -76 176 -161 93 -85 172
-156 177 -158 5 -2 9 9 9 25 0 23 -25 51 -157 173 -86 80 -167 153 -179 162
-21 17 -22 17 -29 -9z"/>
<path d="M6565 1099 c-154 -143 -293 -273 -310 -290 l-30 -30 36 3 c32 3 70
34 313 257 255 235 276 257 276 288 0 18 -1 33 -2 32 -2 0 -129 -117 -283
-260z"/>
<path d="M7274 1149 c-278 -255 -271 -247 -279 -293 -6 -37 0 -32 243 193 222
205 250 235 254 266 2 19 3 35 2 35 -1 0 -100 -90 -220 -201z"/>
<path d="M8095 1154 c-115 -108 -211 -199 -213 -203 -1 -4 3 -14 10 -24 12
-15 32 1 193 149 99 91 186 171 194 179 10 9 36 99 27 94 0 0 -95 -88 -211
-195z"/>
<path d="M540 1312 c0 -25 20 -47 123 -142 67 -63 145 -136 173 -162 l50 -49
11 24 c11 23 3 33 -154 178 -208 192 -203 189 -203 151z"/>
<path d="M1340 1320 c-12 -7 2 -25 71 -89 47 -43 100 -91 118 -107 34 -28 36
-28 54 10 3 7 -206 196 -218 196 -5 0 -17 -5 -25 -10z"/>
<path d="M3509 1284 c-11 -14 -4 -24 61 -85 156 -144 165 -151 183 -131 14 16
7 25 -100 122 -63 58 -118 106 -122 108 -5 1 -14 -5 -22 -14z"/>
<path d="M6060 1237 c-36 -34 -110 -104 -165 -154 -95 -88 -99 -93 -83 -110
17 -16 20 -15 55 18 21 19 91 84 156 144 97 89 117 113 117 137 0 15 -3 28 -7
28 -5 0 -37 -28 -73 -63z"/>
<path d="M1248 1263 c-15 -17 0 -33 225 -240 230 -210 243 -221 260 -205 18
16 17 18 -20 51 -76 68 -160 146 -283 260 -178 165 -164 155 -182 134z"/>
<path d="M5343 1027 c-144 -133 -260 -243 -259 -245 2 -1 22 1 44 6 38 9 142
98 465 402 12 11 17 28 15 47 -3 30 -11 23 -265 -210z"/>
<path d="M4627 1250 c-29 -9 -57 -31 -173 -140 -65 -60 -70 -68 -58 -84 13
-18 16 -16 66 27 117 102 222 206 208 206 -8 -1 -28 -4 -43 -9z"/>
<path d="M2444 1227 c-3 -9 -4 -22 -2 -31 5 -22 352 -336 361 -327 21 21 -7
56 -143 181 -80 73 -159 147 -177 163 -27 25 -33 28 -39 14z"/>
<path d="M3430 1205 c-8 -9 -9 -19 -4 -24 29 -25 416 -381 450 -413 34 -32 47
-39 74 -36 33 3 33 3 -105 131 -76 70 -145 127 -152 127 -7 0 -12 4 -10 10 2
10 -220 220 -233 220 -4 0 -13 -7 -20 -15z"/>
<path d="M4615 1109 c-176 -161 -162 -146 -143 -166 16 -15 23 -10 114 73 53
49 117 108 143 130 40 36 44 43 32 58 -7 9 -16 16 -20 16 -3 0 -60 -50 -126
-111z"/>
<path d="M509 1196 c-1 -9 -2 -20 -3 -24 -1 -5 70 -75 158 -155 126 -117 162
-145 172 -136 8 6 14 17 13 23 -1 11 -310 298 -328 304 -6 2 -12 -3 -12 -12z"/>
<path d="M1170 1181 c-8 -17 14 -41 173 -187 100 -92 203 -187 228 -212 36
-34 52 -43 68 -37 11 3 21 10 21 14 0 8 -465 441 -474 441 -3 0 -10 -9 -16
-19z"/>
<path d="M1842 1163 c2 -23 34 -58 148 -163 80 -73 160 -147 178 -164 l32 -30
0 35 c-1 31 -14 46 -171 189 -93 85 -174 157 -180 159 -6 2 -9 -9 -7 -26z"/>
<path d="M6610 989 c-107 -99 -199 -184 -204 -189 -11 -11 60 7 89 23 11 5 76
62 143 126 84 78 132 131 149 164 13 27 23 50 21 52 -2 2 -91 -78 -198 -176z"/>
<path d="M8140 1044 c-206 -190 -197 -181 -178 -200 15 -16 27 -7 167 122 135
124 151 142 151 171 0 18 -1 33 -2 33 -2 -1 -64 -57 -138 -126z"/>
<path d="M7261 987 c-181 -169 -184 -172 -152 -175 29 -3 44 7 139 95 198 183
212 197 212 226 0 15 -3 27 -7 26 -5 0 -91 -78 -192 -172z"/>
<path d="M3356 1131 c-16 -18 -7 -28 190 -210 188 -173 211 -191 243 -191 l36
0 -25 24 c-14 13 -116 107 -226 209 -193 178 -202 185 -218 168z"/>
<path d="M4686 1023 c-75 -69 -136 -129 -136 -133 0 -5 9 -12 20 -15 20 -6 53
21 278 230 l23 21 -24 11 c-23 11 -34 3 -161 -114z"/>
<path d="M6005 1034 c-69 -64 -125 -120 -125 -124 0 -4 7 -13 15 -20 12 -10
34 6 135 100 112 104 136 139 110 155 -5 3 -66 -47 -135 -111z"/>
<path d="M456 1091 c-15 -17 -9 -24 101 -126 65 -60 134 -124 154 -142 34 -32
36 -33 52 -15 15 17 8 25 -137 159 -145 134 -155 141 -170 124z"/>
<path d="M2420 1083 c0 -24 27 -53 177 -191 162 -150 178 -161 185 -141 6 16
3 28 -9 42 -28 31 -334 312 -344 315 -5 2 -9 -9 -9 -25z"/>
<path d="M4795 973 c-144 -133 -147 -137 -121 -146 24 -8 36 1 154 109 70 64
140 130 157 145 l30 29 -36 0 c-32 0 -51 -14 -184 -137z"/>
<path d="M1132 1069 c3 -31 23 -54 178 -197 151 -139 180 -161 208 -162 17 0
32 2 32 4 0 4 -314 295 -383 356 l-38 33 3 -34z"/>
<path d="M1802 1056 c-10 -23 -3 -32 153 -175 147 -136 167 -151 199 -151 35
0 35 1 -102 127 -75 70 -160 148 -188 175 l-50 49 -12 -25z"/>
<path d="M135 1060 c-2 -3 79 -82 181 -176 138 -126 193 -170 215 -172 16 -2
29 1 29 6 0 5 -81 83 -180 174 -133 123 -187 167 -210 170 -17 3 -33 2 -35 -2z"/>
<path d="M3280 1049 c-14 -25 -29 -8 177 -198 121 -111 136 -122 166 -119 l33
3 -124 115 c-258 238 -239 224 -252 199z"/>
<path d="M8192 939 c-78 -72 -140 -135 -137 -140 20 -31 73 9 320 243 l30 28
-36 0 c-32 0 -51 -14 -177 -131z"/>
<path d="M6150 1017 c-25 -23 -77 -72 -117 -108 -70 -66 -71 -67 -47 -78 23
-10 33 -3 145 101 100 93 118 113 102 119 -30 12 -36 10 -83 -34z"/>
<path d="M375 983 c191 -184 264 -245 285 -238 11 3 20 10 20 14 0 5 -68 71
-151 147 -130 119 -157 139 -188 142 l-36 2 70 -67z"/>
<path d="M8327 914 c-75 -69 -137 -127 -137 -130 0 -2 15 -4 33 -4 27 0 49 16
134 95 71 67 103 104 108 126 4 17 5 32 3 34 -2 2 -66 -52 -141 -121z"/>
<path d="M1723 975 c-21 -11 -16 -17 105 -128 112 -103 131 -117 162 -116 l35
0 -75 70 c-182 170 -203 186 -227 174z"/>
<path d="M3801 987 c2 -2 65 -60 141 -130 75 -70 141 -127 146 -127 5 0 13 8
17 18 5 13 -21 43 -112 129 -109 103 -121 112 -157 113 -22 0 -37 -1 -35 -3z"/>
<path d="M115 953 c-7 -30 -10 -26 144 -167 82 -75 98 -86 130 -86 l36 1 -42
38 c-23 21 -91 83 -151 139 -108 100 -110 102 -117 75z"/>
<path d="M2398 955 c-4 -21 11 -40 102 -125 95 -88 112 -100 144 -100 35 0 35
0 -98 125 -74 69 -136 125 -139 125 -3 0 -7 -11 -9 -25z"/>
<path d="M3204 965 c-3 -8 -4 -18 -2 -23 1 -4 53 -54 113 -110 92 -85 115
-101 143 -102 17 0 32 2 32 4 0 8 -263 246 -272 246 -5 0 -11 -7 -14 -15z"/>
<path d="M4415 440 c-16 -4 -22 -8 -13 -9 9 0 19 -5 22 -10 3 -4 -8 -64 -25
-132 -16 -68 -27 -134 -24 -146 8 -33 48 -40 87 -14 32 21 32 21 6 15 -20 -4
-29 -2 -34 9 -4 13 32 209 52 280 6 19 -16 21 -71 7z"/>
<path d="M5915 440 c-16 -4 -22 -8 -13 -9 23 -1 30 -15 22 -46 -6 -23 -11 -25
-58 -25 -118 0 -197 -100 -154 -195 19 -41 57 -55 153 -55 81 0 85 1 73 19 -9
15 -6 46 16 153 15 73 30 141 32 151 6 19 -16 21 -71 7z m-5 -112 c-1 -39 -39
-181 -51 -189 -45 -28 -109 15 -109 74 0 40 35 96 70 114 33 17 90 17 90 1z"/>
<path d="M7102 440 c-13 -6 -29 -25 -37 -44 -8 -19 -25 -42 -37 -50 -22 -16
-22 -16 -1 -16 l21 0 -23 -108 c-24 -114 -46 -175 -72 -204 -21 -24 -8 -23 33
2 43 27 68 83 90 204 11 58 23 100 31 102 45 14 48 17 22 23 -26 6 -26 7 -15
41 14 43 47 49 56 10 6 -25 6 -25 17 7 6 17 9 34 6 37 -9 9 -65 6 -91 -4z"/>
<path d="M3038 430 c-80 -25 -134 -106 -126 -191 9 -86 69 -129 180 -129 l63
0 29 53 29 52 -46 -42 c-34 -31 -55 -43 -77 -43 -98 0 -148 103 -100 207 30
68 106 102 161 72 11 -5 29 -25 39 -42 l20 -32 0 50 0 50 -73 2 c-39 1 -84 -2
-99 -7z"/>
<path d="M4574 430 c-12 -5 -24 -21 -27 -39 -4 -19 -17 -36 -34 -45 -27 -15
-27 -15 -4 -16 15 0 21 -5 18 -13 -3 -8 -11 -48 -18 -90 -12 -70 -11 -78 6
-97 27 -30 66 -26 101 12 16 18 19 24 7 14 -12 -10 -29 -16 -39 -14 -33 6 -38
31 -20 111 16 70 20 77 41 77 13 0 27 5 30 10 4 6 -5 10 -20 10 -25 0 -26 1
-19 45 3 25 5 45 3 44 -2 0 -13 -4 -25 -9z"/>
<path d="M6504 429 c-30 -15 -48 -52 -40 -84 5 -21 22 -33 81 -60 59 -27 76
-40 81 -60 8 -33 -10 -69 -43 -84 -72 -33 -150 13 -154 92 -2 37 -16 -31 -18
-83 0 -30 2 -40 8 -31 8 12 16 13 49 3 110 -33 212 18 212 105 0 42 -31 73
-97 98 -27 10 -54 22 -61 28 -21 17 -10 51 21 61 38 14 77 -2 104 -43 l23 -34
0 44 c0 38 -3 44 -22 46 -13 1 -45 4 -73 7 -28 3 -59 1 -71 -5z"/>
<path d="M7254 430 c-12 -5 -24 -21 -27 -39 -4 -19 -17 -36 -34 -45 -27 -15
-27 -15 -4 -16 15 0 21 -5 18 -13 -3 -8 -11 -48 -18 -90 -12 -70 -11 -78 6
-97 27 -30 66 -26 101 12 16 18 19 24 7 14 -12 -10 -29 -16 -39 -14 -33 6 -38
31 -20 111 16 70 20 77 41 77 13 0 27 5 30 10 4 6 -5 10 -20 10 -25 0 -26 1
-19 45 3 25 5 45 3 44 -2 0 -13 -4 -25 -9z"/>
<path d="M73 419 c23 -13 22 -30 -8 -162 -18 -79 -32 -117 -46 -130 -21 -16
-19 -17 47 -17 52 1 65 3 52 11 -23 13 -23 25 7 160 19 82 32 119 46 132 21
16 19 17 -47 17 -52 -1 -65 -3 -51 -11z"/>
<path d="M307 335 c-20 -14 -38 -31 -38 -38 -1 -7 -4 2 -8 18 -5 26 -11 30
-46 33 -38 3 -39 3 -22 -16 21 -23 21 -38 3 -111 -29 -117 -29 -111 -2 -111
21 0 27 7 36 43 28 112 72 177 120 177 31 0 34 -19 15 -96 -15 -58 -16 -78 -7
-98 14 -31 41 -33 73 -7 23 19 23 20 3 15 -34 -9 -38 11 -18 103 17 83 17 86
-1 99 -28 21 -66 17 -108 -11z"/>
<path d="M865 346 c-71 -32 -115 -121 -85 -175 36 -68 186 -84 204 -22 18 63
18 66 -3 34 -23 -37 -49 -53 -85 -53 -29 0 -66 42 -66 75 0 19 8 23 62 33 97
18 143 66 103 106 -20 20 -88 21 -130 2z"/>
<path d="M1167 335 c-20 -14 -38 -31 -38 -38 -1 -7 -4 2 -8 18 -5 26 -11 30
-46 33 -38 3 -39 3 -22 -16 21 -23 21 -38 3 -111 -29 -117 -29 -111 -2 -111
21 0 27 7 36 43 28 112 72 177 120 177 31 0 34 -19 15 -96 -15 -58 -16 -78 -7
-98 14 -31 41 -33 73 -7 23 19 23 20 3 15 -34 -9 -38 11 -18 103 17 83 17 86
-1 99 -28 21 -66 17 -108 -11z"/>
<path d="M1565 346 c-71 -32 -115 -121 -85 -175 36 -68 186 -84 204 -22 18 63
18 66 -3 34 -23 -37 -49 -53 -85 -53 -29 0 -66 42 -66 75 0 19 8 23 62 33 97
18 143 66 103 106 -20 20 -88 21 -130 2z"/>
<path d="M1831 334 c-23 -19 -31 -22 -31 -10 0 21 -13 27 -50 19 -26 -5 -29
-8 -16 -15 21 -12 20 -46 -4 -138 -11 -41 -20 -76 -20 -77 0 -2 12 -3 28 -3
26 0 28 3 44 81 22 103 40 132 79 127 16 -3 29 -1 29 3 0 4 3 14 6 23 10 26
-30 20 -65 -10z"/>
<path d="M2106 340 c-3 -8 -7 -25 -11 -37 -6 -20 -3 -20 24 7 44 45 111 38
111 -11 0 -13 -14 -20 -52 -29 -109 -23 -160 -88 -108 -140 26 -26 66 -25 109
1 l33 20 15 -20 c19 -27 34 -26 62 3 23 24 23 25 2 19 -25 -6 -27 9 -9 105 12
63 11 65 -12 84 -19 15 -36 18 -92 16 -50 -2 -69 -7 -72 -18z"/>
<path d="M3300 342 c-79 -39 -104 -135 -52 -193 23 -25 38 -33 79 -36 86 -9
157 41 170 120 15 94 -100 158 -197 109z m114 -18 c38 -38 31 -121 -14 -166
-36 -36 -72 -36 -99 -2 -63 80 44 238 113 168z"/>
<path d="M3657 335 c-20 -14 -38 -31 -38 -38 -1 -7 -4 2 -8 18 -5 26 -11 30
-46 33 -38 3 -39 3 -22 -16 21 -23 21 -38 3 -111 -29 -117 -29 -111 -2 -111
21 0 27 7 36 43 28 112 72 177 120 177 31 0 34 -19 15 -96 -15 -58 -16 -78 -7
-98 14 -31 41 -33 73 -7 23 19 23 20 3 15 -34 -9 -38 11 -18 103 17 83 17 86
-1 99 -28 21 -66 17 -108 -11z"/>
<path d="M3900 354 c-29 -12 -50 -37 -50 -59 0 -29 24 -50 85 -72 58 -22 71
-51 33 -77 -46 -33 -109 -12 -132 43 l-15 36 0 -32 c-1 -17 -3 -38 -7 -46 -4
-10 10 -17 56 -27 97 -21 170 12 170 76 0 27 -19 43 -84 69 -60 24 -70 53 -23
69 36 13 79 -9 87 -44 6 -22 7 -20 13 14 3 22 5 41 3 43 -6 7 -122 12 -136 7z"/>
<path d="M4730 342 c-79 -39 -104 -135 -52 -193 23 -25 38 -33 79 -36 86 -9
157 41 170 120 15 94 -100 158 -197 109z m114 -18 c38 -38 31 -121 -14 -166
-36 -36 -72 -36 -99 -2 -63 80 44 238 113 168z"/>
<path d="M5061 334 c-23 -19 -31 -22 -31 -10 0 21 -13 27 -50 19 -26 -5 -29
-8 -16 -15 21 -12 20 -46 -4 -138 -11 -41 -20 -76 -20 -77 0 -2 12 -3 28 -3
26 0 28 3 44 81 22 103 40 132 79 127 16 -3 29 -1 29 3 0 4 3 14 6 23 10 26
-30 20 -65 -10z"/>
<path d="M5336 340 c-3 -8 -7 -25 -11 -37 -6 -20 -3 -20 24 7 44 45 111 38
111 -11 0 -13 -14 -20 -52 -29 -109 -23 -160 -88 -108 -140 26 -26 66 -25 109
1 l33 20 15 -20 c19 -27 34 -26 62 3 23 24 23 25 2 19 -25 -6 -27 9 -9 105 12
63 11 65 -12 84 -19 15 -36 18 -92 16 -50 -2 -69 -7 -72 -18z"/>
<path d="M6095 346 c-71 -32 -115 -121 -85 -175 36 -68 186 -84 204 -22 18 63
18 66 -3 34 -23 -37 -49 -53 -85 -53 -29 0 -66 42 -66 75 0 19 8 23 62 33 97
18 143 66 103 106 -20 20 -88 21 -130 2z"/>
<path d="M6780 342 c-79 -39 -104 -135 -52 -193 23 -25 38 -33 79 -36 86 -9
157 41 170 120 15 94 -100 158 -197 109z m114 -18 c38 -38 31 -121 -14 -166
-36 -36 -72 -36 -99 -2 -63 80 44 238 113 168z"/>
<path d="M7673 339 c-35 -22 -43 -32 -19 -23 8 3 19 -3 25 -15 37 -68 -28
-184 -94 -167 -31 8 -33 40 -6 144 l19 72 -27 0 c-25 0 -28 -5 -45 -72 -21
-79 -65 -138 -105 -138 -32 0 -35 21 -15 104 20 88 13 106 -43 106 l-35 0 23
-18 22 -19 -18 -88 c-18 -85 -18 -88 0 -101 34 -25 81 -14 128 29 24 23 27 24
27 7 0 -25 37 -50 74 -50 46 0 92 35 120 92 28 56 34 114 14 141 -12 15 -15
15 -45 -4z"/>
<path d="M7806 340 c-3 -8 -7 -25 -11 -37 -6 -20 -3 -20 24 7 44 45 111 38
111 -11 0 -13 -14 -20 -52 -29 -109 -23 -160 -88 -108 -140 26 -26 66 -25 109
1 l33 20 15 -20 c19 -27 34 -26 62 3 23 24 23 25 2 19 -25 -6 -27 9 -9 105 12
63 11 65 -12 84 -19 15 -36 18 -92 16 -50 -2 -69 -7 -72 -18z"/>
<path d="M8131 334 c-23 -19 -31 -22 -31 -10 0 21 -13 27 -50 19 -26 -5 -29
-8 -16 -15 21 -12 20 -46 -4 -138 -11 -41 -20 -76 -20 -77 0 -2 12 -3 28 -3
26 0 28 3 44 81 22 103 40 132 79 127 16 -3 29 -1 29 3 0 4 3 14 6 23 10 26
-30 20 -65 -10z"/>
<path d="M8305 346 c-71 -32 -115 -121 -85 -175 36 -68 186 -84 204 -22 18 63
18 66 -3 34 -23 -37 -49 -53 -85 -53 -29 0 -66 42 -66 75 0 19 8 23 62 33 97
18 143 66 103 106 -20 20 -88 21 -130 2z"/>
<path d="M565 343 c-77 -20 -116 -103 -80 -173 20 -38 47 -52 115 -59 46 -5
55 -9 58 -27 2 -14 -7 -29 -25 -44 -53 -42 -161 -8 -150 48 4 23 4 23 -25 -5
l-29 -27 23 -18 c49 -38 151 -49 213 -24 46 20 62 54 47 104 -10 31 -8 53 9
122 11 48 27 90 36 98 14 10 0 12 -78 11 -52 -1 -103 -4 -114 -6z m121 -30
c-3 -10 -12 -47 -21 -83 -23 -89 -30 -100 -66 -100 -73 0 -104 89 -52 150 31
38 55 49 106 49 32 1 37 -2 33 -16z"/>
<path d="M2495 330 c17 -19 17 -23 -1 -106 -17 -84 -17 -87 1 -100 30 -22 69
-16 113 16 23 17 42 28 42 26 0 -40 -26 -109 -47 -126 -50 -39 -143 -10 -130
41 7 26 3 24 -27 -16 l-27 -35 35 -15 c68 -29 168 -14 208 31 9 11 28 73 42
145 14 69 29 134 32 143 6 15 2 17 -21 14 -25 -3 -30 -9 -40 -53 -20 -88 -70
-155 -116 -155 -29 0 -32 17 -14 91 23 93 16 119 -32 119 -35 0 -36 0 -18 -20z"/>
<path d="M4085 330 c17 -19 17 -23 -1 -106 -17 -84 -17 -87 1 -100 10 -8 30
-14 45 -14 29 0 100 44 101 63 0 7 5 -4 12 -23 14 -42 43 -50 78 -21 24 20 24
20 2 14 -34 -8 -39 19 -18 106 10 42 20 82 22 89 3 8 -4 12 -21 12 -15 0 -28
-6 -31 -12 -2 -7 -11 -40 -20 -72 -18 -66 -68 -126 -104 -126 -32 0 -35 21
-15 104 20 86 13 106 -39 106 -29 0 -30 0 -12 -20z"/>
</g>
</svg>
